  <svg
    xmlns="http://www.w3.org/2000/svg"
    width="512"
    height="512"
    viewBox="0 0 512 512"
    fill="white"
  >
    <rect width="512" height="512" fill="white" />
    <path
      fill="#111111"
      d="M96 416c-26.5 0-48-21.5-48-48s21.5-48 48-48 48 21.5 48 48-21.5 48-48 48zm0-64c-8.8 0-16 7.2-16 16s7.2 16 16 16 16-7.2 16-16-7.2-16-16-16z"
    />
    <path
      fill="#111111"
      d="M96 320c-26.5 0-48-21.5-48-48s21.5-48 48-48 48 21.5 48 48-21.5 48-48 48zm0-64c-8.8 0-16 7.2-16 16s7.2 16 16 16 16-7.2 16-16-7.2-16-16-16z"
    />
    <path
      fill="#111111"
      d="M96 224c-26.5 0-48-21.5-48-48s21.5-48 48-48 48 21.5 48 48-21.5 48-48 48zm0-64c-8.8 0-16 7.2-16 16s7.2 16 16 16 16-7.2 16-16-7.2-16-16-16z"
    />
    <path
      fill="#111111"
      d="M96 128c-26.5 0-48-21.5-48-48s21.5-48 48-48 48 21.5 48 48-21.5 48-48 48zm0-64c-8.8 0-16 7.2-16 16s7.2 16 16 16 16-7.2 16-16-7.2-16-16-16z"
    />
  </svg>